<svg width="27" height="26" viewBox="0 0 27 26" fill="none" xmlns="http://www.w3.org/2000/svg">
<g clip-path="url(#clip0_15_3345)">
<path fill-rule="evenodd" clip-rule="evenodd" d="M1.17102 24.8748C1.17102 25.4354 1.62134 25.8951 2.17142 25.8951H7.36076L8.47905 25.0691L9.61395 25.8951H12.0756L12.9204 25.0691L13.7666 25.8951H14.6129L15.4591 25.0691L16.3053 25.8951H19.1267C19.6768 25.8951 20.1271 25.4354 20.1271 24.8748V23.8441V23.509L10.3987 21.7344L1.17102 23.509V24.8748Z" fill="#7E707D"/>
<path fill-rule="evenodd" clip-rule="evenodd" d="M13.8053 4.43858L19.6961 2.91123C19.7415 2.91123 19.7853 2.90382 19.8276 2.89346C20.0256 2.83709 20.1707 2.65621 20.1707 2.44562V0.571133C20.1707 0.314586 19.9576 0.105469 19.6962 0.105469H7.14742C6.88599 0.105469 6.67139 0.314586 6.67139 0.571133V2.26169L13.8053 4.43858Z" fill="#F5A96C"/>
<path fill-rule="evenodd" clip-rule="evenodd" d="M0.626826 5.06749L6.90195 7.03313L13.1771 5.06749C13.2209 5.06749 13.2662 5.06155 13.307 5.04972C13.505 4.99335 13.6516 4.81394 13.6516 4.60187V2.91126V2.72738C13.6516 2.47084 13.437 2.26172 13.1771 2.26172H6.67152H0.626826C0.365392 2.26172 0.152344 2.47084 0.152344 2.72738V4.60187C0.152344 4.84954 0.353335 5.05418 0.602659 5.06754H0.626826V5.06749Z" fill="#FFBC85"/>
<path fill-rule="evenodd" clip-rule="evenodd" d="M21.1315 22.0309V23.5092H6.51862C4.60424 22.6513 3.37066 22.1161 1.4941 19.231C1.59485 17.2237 1.60339 15.2871 1.49306 13.1919C1.48401 13.0214 1.47438 12.8498 1.46372 12.6766C1.45198 12.4904 1.43971 12.3026 1.42641 12.1132C1.2782 10.0191 1.01273 7.73979 0.602783 5.06758H13.1771C13.2224 5.06758 13.2661 5.06128 13.3072 5.0498C13.6516 5.55411 17.6829 15.647 21.0953 21.3534C21.1129 21.3827 21.1028 21.423 21.106 21.4586C21.1225 21.6364 21.1315 21.8263 21.1315 22.0309Z" fill="#FDE588"/>
<path fill-rule="evenodd" clip-rule="evenodd" d="M1.4944 19.2314C1.4264 20.6017 1.31607 22.0031 1.17102 23.5098H6.51902C5.99165 21.2898 4.0664 19.2314 1.4944 19.2314Z" fill="#FFBC85"/>
<path fill-rule="evenodd" clip-rule="evenodd" d="M26.6474 19.8744V21.4585L23.3742 22.6515L20.1009 21.4585C20.0983 21.4229 20.095 21.3889 20.0902 21.3544C20.0902 21.3533 20.0902 21.3533 20.0902 21.3533C19.6115 17.2158 14.5262 20.4943 12.7569 17.2095C12.3229 16.4044 12.1374 14.7377 12.2477 12.473C12.2755 11.9164 12.3197 11.3242 12.3837 10.6985C12.3965 10.573 12.4098 10.4463 12.4242 10.3182C12.4391 10.1853 12.4546 10.0514 12.4706 9.9159C12.6497 8.44167 12.9264 6.80844 13.307 5.06588C13.5048 5.00936 13.6514 4.82995 13.6514 4.61809V2.92891H19.6962C19.7416 2.92891 19.7852 2.92317 19.8274 2.91113C19.2495 5.55562 18.9131 7.94427 18.7905 9.91702C18.7819 10.0525 18.7745 10.1864 18.7681 10.3182C18.7617 10.448 18.7563 10.5751 18.7521 10.7007C18.6796 12.7707 18.8683 14.2957 19.2772 15.0553C21.1346 18.5027 26.6474 14.7183 26.6474 19.8744Z" fill="#FDE588"/>
<path fill-rule="evenodd" clip-rule="evenodd" d="M18.4252 25.8959H19.1264C19.6765 25.8959 20.1268 25.4362 20.1268 24.8756V23.8449V23.5098H18.4252V23.8449V25.8959Z" fill="#6A5C69"/>
<path fill-rule="evenodd" clip-rule="evenodd" d="M17.7951 2.92896C17.1816 5.74361 16.8416 8.26759 16.7419 10.3081C16.7404 10.3111 16.7404 10.3155 16.7404 10.3185H18.7683C18.868 8.27201 19.2096 5.73762 19.8277 2.91113C19.8262 2.91113 19.8247 2.91113 19.8231 2.91261C19.7823 2.92296 19.74 2.92891 19.6962 2.92891H17.7951V2.92896Z" fill="#FDD76F"/>
<path fill-rule="evenodd" clip-rule="evenodd" d="M16.7402 10.3184C16.6299 12.5828 17.1543 15.3293 17.588 16.1345C19.4467 19.5824 24.6194 16.1301 24.6194 21.2878V21.4583H26.6474V19.8745V19.873C26.6459 14.7183 21.1347 18.5028 19.2775 15.0549C18.9239 14.3994 18.7349 13.1716 18.7365 11.5151C18.7365 11.137 18.747 10.7381 18.7682 10.3184H16.7402Z" fill="#FDD76F"/>
<path d="M18.7909 9.91703C18.7824 10.0525 18.7749 10.1864 18.7685 10.3183C18.7621 10.448 18.7567 10.5751 18.7525 10.7007H12.4246C12.4107 10.7007 12.3974 10.7002 12.3841 10.6986C12.1826 10.6787 12.0248 10.5113 12.0248 10.3084C12.0248 10.0913 12.2039 9.91602 12.4246 9.91602H18.7685C18.776 9.91602 18.7834 9.91602 18.7909 9.91703Z" fill="#7E707D"/>
<path fill-rule="evenodd" clip-rule="evenodd" d="M20.1266 22.0315V23.5099H18.4254L18.3892 22.2271C18.4825 19.4571 12.8247 21.4356 11.0553 18.1477C10.6464 17.387 10.4577 15.024 10.5302 12.8572C10.5345 12.7254 10.5398 12.5945 10.5462 12.4648H12.2479C12.2414 12.5977 12.2361 12.7285 12.2319 12.8572C12.1599 14.9236 12.3486 16.4464 12.757 17.206C14.5263 20.4935 19.6116 17.2133 20.0903 21.354L20.101 21.4592C20.1175 21.637 20.1266 21.8269 20.1266 22.0315Z" fill="#FDD76F"/>
<path fill-rule="evenodd" clip-rule="evenodd" d="M13.3072 5.0498C12.8914 6.95507 12.5997 8.72748 12.4243 10.3084C12.355 10.9273 12.3039 11.5168 12.2697 12.073C12.2612 12.2053 12.2543 12.3356 12.2479 12.4643H10.5463C10.5527 12.3356 10.5601 12.2048 10.5681 12.0719C10.6028 11.5158 10.6534 10.9273 10.7227 10.3085C10.8981 8.73327 11.1881 6.96558 11.6007 5.06763H13.1772C13.2224 5.06758 13.2661 5.06133 13.3072 5.0498Z" fill="#FDD76F"/>
<path d="M12.2696 12.0733C12.2611 12.2056 12.2541 12.3359 12.2478 12.4646C12.2413 12.5975 12.236 12.7283 12.2318 12.857H6.68801C6.19381 12.857 5.85796 12.8663 5.68952 12.9935C5.50985 13.1295 5.42244 13.5015 5.42244 14.1303C5.42244 14.6137 5.22145 14.984 4.87122 15.1451C4.77792 15.1881 4.6441 15.2294 4.47301 15.2294C4.20806 15.2294 3.85405 15.13 3.42707 14.7821L1.49292 13.1923C1.48387 13.0217 1.47424 12.8501 1.46358 12.677C1.45183 12.4907 1.43957 12.3029 1.42627 12.1136L3.93721 14.1779C4.24268 14.4263 4.45966 14.4677 4.53165 14.4347C4.57537 14.4149 4.62283 14.3108 4.62283 14.1303C4.62283 13.2043 4.79608 12.6786 5.20179 12.372C5.59787 12.0723 6.12726 12.0723 6.68806 12.0723H12.2478C12.2552 12.0722 12.2621 12.0722 12.2696 12.0733Z" fill="#7E707D"/>
<path fill-rule="evenodd" clip-rule="evenodd" d="M20.1269 22.0314V23.5099V23.8451H21.1333L21.9796 23.0191L22.8258 23.8451H25.6471C26.1972 23.8451 26.6475 23.3854 26.6475 22.8248V21.459H20.1012C20.1178 21.637 20.1269 21.8268 20.1269 22.0314Z" fill="#7E707D"/>
<path d="M24.6196 21.459V23.8451H25.6472C26.1973 23.8451 26.6476 23.3854 26.6476 22.8248V21.459H24.6196V21.459Z" fill="#6A5C69"/>
</g>
<defs>
<clipPath id="clip0_15_3345">
<rect width="26.4952" height="26" fill="white" transform="translate(0.152344)"/>
</clipPath>
</defs>
</svg>
