<svg xmlns="http://www.w3.org/2000/svg" fill="none" viewBox="14 -1 73 70.06">
<mask id="path-1-inside-1_73_174" fill="white">
<path d="M84.0001 34.0292C84.0001 51.7184 69.6359 66.0584 51.9167 66.0584C34.1976 66.0584 19.8334 51.7184 19.8334 34.0292C19.8334 16.34 34.1976 2 51.9167 2C69.6359 2 84.0001 16.34 84.0001 34.0292ZM26.25 34.0292C26.25 48.1806 37.7414 59.6525 51.9167 59.6525C66.092 59.6525 77.5834 48.1806 77.5834 34.0292C77.5834 19.8778 66.092 8.40584 51.9167 8.40584C37.7414 8.40584 26.25 19.8778 26.25 34.0292Z"/>
</mask>
<path d="M84.0001 34.0292C84.0001 51.7184 69.6359 66.0584 51.9167 66.0584C34.1976 66.0584 19.8334 51.7184 19.8334 34.0292C19.8334 16.34 34.1976 2 51.9167 2C69.6359 2 84.0001 16.34 84.0001 34.0292ZM26.25 34.0292C26.25 48.1806 37.7414 59.6525 51.9167 59.6525C66.092 59.6525 77.5834 48.1806 77.5834 34.0292C77.5834 19.8778 66.092 8.40584 51.9167 8.40584C37.7414 8.40584 26.25 19.8778 26.25 34.0292Z" fill="#232545" stroke="#232545" stroke-width="6" mask="url(#path-1-inside-1_73_174)"/>
<path d="M62.1816 12.046C62.2319 11.9713 62.257 11.9339 62.3007 11.8603C63.0833 10.5405 62.5925 8.56809 61.2826 7.76902C61.2095 7.72446 61.2314 7.73616 61.2227 7.73148C55.2276 4.52812 48.3391 3.29597 41.5528 4.26236C33.7021 5.38031 26.5444 9.36121 21.4605 15.437C16.3766 21.5128 13.7268 29.253 14.0223 37.1642C14.3178 45.0754 17.5377 52.5971 23.0608 58.278C28.5839 63.9589 36.0188 67.3965 43.931 67.9276C51.8433 68.4587 59.6722 66.0457 65.9073 61.154C72.1425 56.2623 76.3421 49.2387 77.6958 41.4382C78.8663 34.6935 77.8375 27.7812 74.8074 21.7022C74.8038 21.695 74.8128 21.713 74.7699 21.6381C74.0099 20.3105 72.0593 19.7628 70.7192 20.5007C70.6436 20.5423 70.6047 20.5668 70.5267 20.6157V20.6157C70.2816 20.7697 70.1591 20.8467 70.0978 20.8896C68.8419 21.7687 68.4615 23.0603 69.0403 24.4798C69.0685 24.5491 69.1607 24.7465 69.3452 25.1414C71.5495 29.8603 72.2723 35.1643 71.3733 40.3447C70.2903 46.5851 66.9307 52.204 61.9425 56.1173C56.9544 60.0306 50.6913 61.9611 44.3615 61.5362C38.0317 61.1113 32.0838 58.3612 27.6653 53.8165C23.2469 49.2718 20.6709 43.2545 20.4345 36.9255C20.1981 30.5965 22.3179 24.4044 26.385 19.5437C30.4522 14.6831 36.1784 11.4984 42.4589 10.604C47.6775 9.86086 52.9716 10.7428 57.6339 13.0884C58.0193 13.2823 58.212 13.3792 58.2795 13.4092C59.6795 14.029 60.9815 13.688 61.8977 12.4614C61.9419 12.4022 62.0218 12.2834 62.1816 12.046V12.046Z" fill="url(#paint0_linear_73_174)"/>
<g filter="url(#filter0_d_73_174)">
<circle cx="46" cy="36" r="24" fill="url(#paint1_linear_73_174)"/>
</g>
<path d="M56.6875 22.125C54.1514 22.125 51.7191 23.1325 49.9258 24.9258C48.1325 26.7191 47.125 29.1514 47.125 31.6875V34.875C47.125 35.4386 47.3489 35.9791 47.7474 36.3776C48.1459 36.7761 48.6864 37 49.25 37H51.256L51.2135 37.4059C51.1157 38.3664 50.9819 39.6626 50.848 41.0184C50.5866 43.6852 50.3125 46.6772 50.3125 47.625C50.3125 48.7522 50.7603 49.8332 51.5573 50.6302C52.3543 51.4272 53.4353 51.875 54.5625 51.875C55.6897 51.875 56.7707 51.4272 57.5677 50.6302C58.3647 49.8332 58.8125 48.7522 58.8125 47.625C58.8125 46.6772 58.5384 43.6853 58.277 41.0163C58.12 39.429 57.957 37.8423 57.7882 36.2563L57.75 35.8801V23.1875C57.75 22.9057 57.6381 22.6355 57.4388 22.4362C57.2395 22.2369 56.9693 22.125 56.6875 22.125Z" fill="url(#paint2_linear_73_174)"/>
<path d="M42.2864 22.2398C42.427 22.3095 42.5504 22.4094 42.6478 22.5325C42.7451 22.6556 42.814 22.7987 42.8495 22.9516C42.8877 23.1195 43.9375 27.6118 43.9375 30.625C43.9375 32.6438 42.9983 34.4436 41.5363 35.6103C41.005 36.0353 40.75 36.4985 40.75 36.8853V37.918C40.75 37.9676 40.7528 38.0143 40.7585 38.0583C40.8308 38.5853 41.0921 40.5424 41.3365 42.5718C41.5766 44.5629 41.8125 46.7346 41.8125 47.625C41.8125 48.7522 41.3647 49.8332 40.5677 50.6302C39.7707 51.4272 38.6897 51.875 37.5625 51.875C36.4353 51.875 35.3543 51.4272 34.5573 50.6302C33.7603 49.8332 33.3125 48.7522 33.3125 47.625C33.3125 46.7325 33.5484 44.565 33.7885 42.5718C34.0329 40.5424 34.2943 38.5853 34.3665 38.0583L34.375 37.918V36.8853C34.375 36.4985 34.12 36.0353 33.5888 35.6103C32.8396 35.0131 32.2348 34.2548 31.819 33.3917C31.4033 32.5287 31.1875 31.583 31.1875 30.625C31.1875 27.6224 32.2288 23.1535 32.2755 22.9538C32.3307 22.7175 32.4644 22.507 32.6546 22.3565C32.8449 22.206 33.0805 22.1244 33.3231 22.125C33.9181 22.125 34.4005 22.6074 34.4005 23.2024V29.5731C34.3921 29.7166 34.4132 29.8603 34.4626 29.9953C34.5119 30.1304 34.5884 30.2538 34.6873 30.3582C34.7862 30.4625 34.9054 30.5454 35.0376 30.6018C35.1698 30.6583 35.3122 30.687 35.4559 30.6863C35.5997 30.6856 35.7417 30.6554 35.8733 30.5976C36.005 30.5398 36.1234 30.4557 36.2212 30.3504C36.319 30.2451 36.3943 30.1208 36.4422 29.9853C36.4902 29.8498 36.5098 29.7059 36.5 29.5625V23.1875C36.5 22.9057 36.6119 22.6355 36.8112 22.4362C37.0105 22.2369 37.2807 22.125 37.5625 22.125C37.8443 22.125 38.1145 22.2369 38.3138 22.4362C38.5131 22.6355 38.625 22.9057 38.625 23.1875V29.6178C38.6309 29.8967 38.7474 30.1619 38.9489 30.355C39.1503 30.5481 39.4202 30.6532 39.6992 30.6473C39.9782 30.6414 40.2434 30.5249 40.4364 30.3235C40.6295 30.122 40.7347 29.8521 40.7287 29.5731V23.1981C40.7287 22.6053 41.209 22.125 41.804 22.125C41.8507 22.125 42.059 22.125 42.2864 22.2398Z" fill="url(#paint3_linear_73_174)"/>
<defs>
<filter id="filter0_d_73_174" x="0" y="0" width="92" height="92" filterUnits="userSpaceOnUse" color-interpolation-filters="sRGB">
<feFlood flood-opacity="0" result="BackgroundImageFix"/>
<feColorMatrix in="SourceAlpha" type="matrix" values="0 0 0 0 0 0 0 0 0 0 0 0 0 0 0 0 0 0 127 0" result="hardAlpha"/>
<feOffset dy="10"/>
<feGaussianBlur stdDeviation="11"/>
<feColorMatrix type="matrix" values="0 0 0 0 0.584314 0 0 0 0 0.678431 0 0 0 0 0.996078 0 0 0 0.3 0"/>
<feBlend mode="normal" in2="BackgroundImageFix" result="effect1_dropShadow_73_174"/>
<feBlend mode="normal" in="SourceGraphic" in2="effect1_dropShadow_73_174" result="shape"/>
</filter>
<linearGradient id="paint0_linear_73_174" x1="46.0833" y1="-29.918" x2="46.0833" y2="47.4096" gradientUnits="userSpaceOnUse">
<stop stop-color="#4C8AEC"/>
<stop offset="1" stop-color="#4482EC"/>
</linearGradient>
<linearGradient id="paint1_linear_73_174" x1="70" y1="60" x2="6.02592" y2="55.0496" gradientUnits="userSpaceOnUse">
<stop stop-color="white"/>
<stop offset="1" stop-color="#9DCEFF"/>
</linearGradient>
<linearGradient id="paint2_linear_73_174" x1="45.3273" y1="23.9844" x2="73.0457" y2="34.3416" gradientUnits="userSpaceOnUse">
<stop stop-color="#6CE0FF"/>
<stop offset="1" stop-color="#0067BF"/>
</linearGradient>
<linearGradient id="paint3_linear_73_174" x1="29.2261" y1="23.9844" x2="58.7764" y2="36.0289" gradientUnits="userSpaceOnUse">
<stop stop-color="#6CE0FF"/>
<stop offset="1" stop-color="#0067BF"/>
</linearGradient>
</defs>
</svg>