<svg width="181" height="64" viewBox="0 0 181 64" fill="none" xmlns="http://www.w3.org/2000/svg">
<path d="M11.1013 28V-1.90735e-06H23.8213C26.8613 -1.90735e-06 29.5413 0.586665 31.8613 1.76C34.1813 2.90667 35.9946 4.52 37.3013 6.6C38.6079 8.68 39.2613 11.1467 39.2613 14C39.2613 16.8267 38.6079 19.2933 37.3013 21.4C35.9946 23.48 34.1813 25.1067 31.8613 26.28C29.5413 27.4267 26.8613 28 23.8213 28H11.1013ZM17.5813 22.68H23.5013C25.3679 22.68 26.9813 22.3333 28.3412 21.64C29.7279 20.92 30.7946 19.9067 31.5413 18.6C32.3146 17.2933 32.7013 15.76 32.7013 14C32.7013 12.2133 32.3146 10.68 31.5413 9.4C30.7946 8.09333 29.7279 7.09333 28.3412 6.4C26.9813 5.68 25.3679 5.32 23.5013 5.32H17.5813V22.68ZM44.1481 28V-1.90735e-06H50.6281V28H44.1481ZM63.2331 11.28H76.7131V16.32H63.2331V11.28ZM63.7131 22.8H78.9531V28H57.2731V-1.90735e-06H78.4331V5.2H63.7131V22.8ZM89.9091 28V5.28H80.9491V-1.90735e-06H105.349V5.28H96.3891V28H89.9091ZM108.836 28V-1.90735e-06H115.316V28H108.836ZM127.961 12.6H141.401V17.8H127.961V12.6ZM128.441 28H121.961V-1.90735e-06H143.121V5.2H128.441V28ZM154.467 28V16.56L155.947 20.48L143.627 -1.90735e-06H150.508L159.948 15.72H155.988L165.468 -1.90735e-06H171.828L159.508 20.48L160.948 16.56V28H154.467ZM0.00368762 60V48.8H4.83569C6.08369 48.8 7.04902 49.0507 7.73169 49.552C8.42502 50.0533 8.77169 50.7627 8.77169 51.68C8.77169 52.288 8.62769 52.8 8.33969 53.216C8.06235 53.632 7.67835 53.9467 7.18769 54.16C6.70769 54.3733 6.17969 54.48 5.60369 54.48L5.87569 54.096C6.59035 54.096 7.20369 54.208 7.71569 54.432C8.23835 54.6453 8.64369 54.9707 8.93169 55.408C9.21969 55.8347 9.36369 56.368 9.36369 57.008C9.36369 57.9573 9.01169 58.6933 8.30769 59.216C7.61435 59.7387 6.56369 60 5.15569 60H0.00368762ZM1.18769 59.024H5.13969C6.12102 59.024 6.87302 58.8587 7.39569 58.528C7.91835 58.1867 8.17969 57.648 8.17969 56.912C8.17969 56.1867 7.91835 55.6587 7.39569 55.328C6.87302 54.9867 6.12102 54.816 5.13969 54.816H1.05969V53.84H4.75569C5.65169 53.84 6.34502 53.6693 6.83569 53.328C7.33702 52.9867 7.58769 52.48 7.58769 51.808C7.58769 51.1253 7.33702 50.6187 6.83569 50.288C6.34502 49.9467 5.65169 49.776 4.75569 49.776H1.18769V59.024ZM11.8902 63.184C11.4955 63.184 11.1169 63.12 10.7542 62.992C10.4022 62.864 10.0982 62.672 9.84219 62.416L10.3702 61.568C10.5835 61.7707 10.8129 61.9253 11.0582 62.032C11.3142 62.1493 11.5969 62.208 11.9062 62.208C12.2795 62.208 12.5995 62.1013 12.8662 61.888C13.1435 61.6853 13.4049 61.3227 13.6502 60.8L14.1942 59.568L14.3222 59.392L17.7782 51.6H18.8982L14.6902 61.008C14.4555 61.552 14.1942 61.984 13.9062 62.304C13.6289 62.624 13.3249 62.848 12.9942 62.976C12.6635 63.1147 12.2955 63.184 11.8902 63.184ZM14.1302 60.24L10.2582 51.6H11.4422L14.8662 59.312L14.1302 60.24ZM27.5976 60V55.84L27.8696 56.576L23.1176 48.8H24.3816L28.5576 55.632H27.8856L32.0616 48.8H33.2456L28.4936 56.576L28.7656 55.84V60H27.5976ZM37.3127 60.08C36.502 60.08 35.7714 59.8987 35.1207 59.536C34.4807 59.1627 33.974 58.656 33.6007 58.016C33.2274 57.3653 33.0407 56.624 33.0407 55.792C33.0407 54.9493 33.2274 54.208 33.6007 53.568C33.974 52.928 34.4807 52.4267 35.1207 52.064C35.7607 51.7013 36.4914 51.52 37.3127 51.52C38.1447 51.52 38.8807 51.7013 39.5207 52.064C40.1714 52.4267 40.678 52.928 41.0407 53.568C41.414 54.208 41.6007 54.9493 41.6007 55.792C41.6007 56.624 41.414 57.3653 41.0407 58.016C40.678 58.656 40.1714 59.1627 39.5207 59.536C38.87 59.8987 38.134 60.08 37.3127 60.08ZM37.3127 59.072C37.9207 59.072 38.4594 58.9387 38.9287 58.672C39.398 58.3947 39.766 58.0107 40.0327 57.52C40.31 57.0187 40.4487 56.4427 40.4487 55.792C40.4487 55.1307 40.31 54.5547 40.0327 54.064C39.766 53.5733 39.398 53.1947 38.9287 52.928C38.4594 52.6507 37.926 52.512 37.3287 52.512C36.7314 52.512 36.198 52.6507 35.7287 52.928C35.2594 53.1947 34.886 53.5733 34.6087 54.064C34.3314 54.5547 34.1927 55.1307 34.1927 55.792C34.1927 56.4427 34.3314 57.0187 34.6087 57.52C34.886 58.0107 35.2594 58.3947 35.7287 58.672C36.198 58.9387 36.726 59.072 37.3127 59.072ZM47.3919 60.08C46.6773 60.08 46.0533 59.9467 45.5199 59.68C44.9866 59.4133 44.5706 59.0133 44.2719 58.48C43.9839 57.9467 43.8399 57.28 43.8399 56.48V51.6H44.9759V56.352C44.9759 57.248 45.1946 57.9253 45.6319 58.384C46.0799 58.832 46.7039 59.056 47.5039 59.056C48.0906 59.056 48.5973 58.9387 49.0239 58.704C49.4613 58.4587 49.7919 58.1067 50.0159 57.648C50.2506 57.1893 50.3679 56.64 50.3679 56V51.6H51.5039V60H50.4159V57.696L50.5919 58.112C50.3253 58.7307 49.9093 59.216 49.3439 59.568C48.7893 59.9093 48.1386 60.08 47.3919 60.08ZM54.6699 60V51.6H55.7579V53.888L55.6459 53.488C55.8806 52.848 56.2753 52.3627 56.8299 52.032C57.3846 51.6907 58.0726 51.52 58.8939 51.52V52.624C58.8513 52.624 58.8086 52.624 58.7659 52.624C58.7233 52.6133 58.6806 52.608 58.6379 52.608C57.7526 52.608 57.0593 52.88 56.5579 53.424C56.0566 53.9573 55.8059 54.72 55.8059 55.712V60H54.6699ZM61.5182 60V50.544C61.5182 49.7973 61.7369 49.1947 62.1742 48.736C62.6115 48.2773 63.2409 48.048 64.0622 48.048C64.3822 48.048 64.6915 48.0907 64.9902 48.176C65.2889 48.2613 65.5395 48.3947 65.7422 48.576L65.3582 49.424C65.1982 49.2853 65.0115 49.184 64.7982 49.12C64.5849 49.0453 64.3555 49.008 64.1102 49.008C63.6302 49.008 63.2622 49.1413 63.0062 49.408C62.7502 49.6747 62.6222 50.0693 62.6222 50.592V51.872L62.6542 52.4V60H61.5182ZM60.0142 52.544V51.6H65.2142V52.544H60.0142ZM66.7502 60V51.6H67.8862V60H66.7502ZM67.3262 49.744C67.0915 49.744 66.8942 49.664 66.7342 49.504C66.5742 49.344 66.4942 49.152 66.4942 48.928C66.4942 48.704 66.5742 48.5173 66.7342 48.368C66.8942 48.208 67.0915 48.128 67.3262 48.128C67.5609 48.128 67.7582 48.2027 67.9182 48.352C68.0782 48.5013 68.1582 48.688 68.1582 48.912C68.1582 49.1467 68.0782 49.344 67.9182 49.504C67.7689 49.664 67.5715 49.744 67.3262 49.744ZM73.7322 60.08C72.9429 60.08 72.3349 59.8667 71.9082 59.44C71.4815 59.0133 71.2682 58.4107 71.2682 57.632V49.744H72.4042V57.568C72.4042 58.0587 72.5269 58.4373 72.7722 58.704C73.0282 58.9707 73.3909 59.104 73.8602 59.104C74.3615 59.104 74.7775 58.96 75.1082 58.672L75.5082 59.488C75.2842 59.6907 75.0122 59.84 74.6922 59.936C74.3829 60.032 74.0629 60.08 73.7322 60.08ZM69.7642 52.544V51.6H74.9642V52.544H69.7642ZM81.8642 51.52C82.5469 51.52 83.1442 51.6533 83.6562 51.92C84.1789 52.176 84.5842 52.5707 84.8722 53.104C85.1709 53.6373 85.3202 54.3093 85.3202 55.12V60H84.1842V55.232C84.1842 54.3467 83.9602 53.68 83.5122 53.232C83.0749 52.7733 82.4562 52.544 81.6562 52.544C81.0589 52.544 80.5362 52.6667 80.0882 52.912C79.6509 53.1467 79.3095 53.4933 79.0642 53.952C78.8295 54.4 78.7122 54.944 78.7122 55.584V60H77.5762V51.6H78.6642V53.904L78.4882 53.472C78.7549 52.864 79.1815 52.3893 79.7682 52.048C80.3549 51.696 81.0535 51.52 81.8642 51.52ZM91.9567 60.08C91.082 60.08 90.314 59.8987 89.6527 59.536C88.9914 59.1627 88.474 58.656 88.1007 58.016C87.7274 57.3653 87.5407 56.624 87.5407 55.792C87.5407 54.96 87.7167 54.224 88.0687 53.584C88.4314 52.944 88.922 52.4427 89.5407 52.08C90.17 51.7067 90.874 51.52 91.6527 51.52C92.442 51.52 93.1407 51.7013 93.7487 52.064C94.3674 52.416 94.8527 52.9173 95.2047 53.568C95.5567 54.208 95.7327 54.9493 95.7327 55.792C95.7327 55.8453 95.7274 55.904 95.7167 55.968C95.7167 56.0213 95.7167 56.08 95.7167 56.144H88.4047V55.296H95.1087L94.6607 55.632C94.6607 55.024 94.5274 54.4853 94.2607 54.016C94.0047 53.536 93.6527 53.1627 93.2047 52.896C92.7567 52.6293 92.2394 52.496 91.6527 52.496C91.0767 52.496 90.5594 52.6293 90.1007 52.896C89.642 53.1627 89.2847 53.536 89.0287 54.016C88.7727 54.496 88.6447 55.0453 88.6447 55.664V55.84C88.6447 56.48 88.7834 57.0453 89.0607 57.536C89.3487 58.016 89.7434 58.3947 90.2447 58.672C90.7567 58.9387 91.338 59.072 91.9887 59.072C92.5007 59.072 92.9754 58.9813 93.4127 58.8C93.8607 58.6187 94.2447 58.3413 94.5647 57.968L95.2047 58.704C94.8314 59.152 94.362 59.4933 93.7967 59.728C93.242 59.9627 92.6287 60.08 91.9567 60.08ZM100.301 60.08C99.6076 60.08 98.9516 59.984 98.3329 59.792C97.7143 59.5893 97.2289 59.3387 96.8769 59.04L97.3889 58.144C97.7303 58.4 98.1676 58.624 98.7009 58.816C99.2343 58.9973 99.7943 59.088 100.381 59.088C101.181 59.088 101.757 58.9653 102.109 58.72C102.461 58.464 102.637 58.128 102.637 57.712C102.637 57.4027 102.536 57.1627 102.333 56.992C102.141 56.8107 101.885 56.6773 101.565 56.592C101.245 56.496 100.888 56.416 100.493 56.352C100.098 56.288 99.7036 56.2133 99.3089 56.128C98.9249 56.0427 98.5729 55.92 98.2529 55.76C97.9329 55.5893 97.6716 55.36 97.4689 55.072C97.2769 54.784 97.1809 54.4 97.1809 53.92C97.1809 53.4613 97.3089 53.0507 97.5649 52.688C97.8209 52.3253 98.1943 52.0427 98.6849 51.84C99.1863 51.6267 99.7943 51.52 100.509 51.52C101.053 51.52 101.597 51.5947 102.141 51.744C102.685 51.8827 103.133 52.0693 103.485 52.304L102.989 53.216C102.616 52.96 102.216 52.7787 101.789 52.672C101.362 52.5547 100.936 52.496 100.509 52.496C99.7516 52.496 99.1916 52.6293 98.8289 52.896C98.4769 53.152 98.3009 53.4827 98.3009 53.888C98.3009 54.208 98.3969 54.4587 98.5889 54.64C98.7916 54.8213 99.0529 54.9653 99.3729 55.072C99.7036 55.168 100.061 55.248 100.445 55.312C100.84 55.376 101.229 55.456 101.613 55.552C102.008 55.6373 102.365 55.76 102.685 55.92C103.016 56.0693 103.277 56.288 103.469 56.576C103.672 56.8533 103.773 57.2213 103.773 57.68C103.773 58.1707 103.634 58.5973 103.357 58.96C103.09 59.312 102.696 59.5893 102.173 59.792C101.661 59.984 101.037 60.08 100.301 60.08ZM108.113 60.08C107.42 60.08 106.764 59.984 106.145 59.792C105.527 59.5893 105.041 59.3387 104.689 59.04L105.201 58.144C105.543 58.4 105.98 58.624 106.513 58.816C107.047 58.9973 107.607 59.088 108.193 59.088C108.993 59.088 109.569 58.9653 109.921 58.72C110.273 58.464 110.449 58.128 110.449 57.712C110.449 57.4027 110.348 57.1627 110.145 56.992C109.953 56.8107 109.697 56.6773 109.377 56.592C109.057 56.496 108.7 56.416 108.305 56.352C107.911 56.288 107.516 56.2133 107.121 56.128C106.737 56.0427 106.385 55.92 106.065 55.76C105.745 55.5893 105.484 55.36 105.281 55.072C105.089 54.784 104.993 54.4 104.993 53.92C104.993 53.4613 105.121 53.0507 105.377 52.688C105.633 52.3253 106.007 52.0427 106.497 51.84C106.999 51.6267 107.607 51.52 108.321 51.52C108.865 51.52 109.409 51.5947 109.953 51.744C110.497 51.8827 110.945 52.0693 111.297 52.304L110.801 53.216C110.428 52.96 110.028 52.7787 109.601 52.672C109.175 52.5547 108.748 52.496 108.321 52.496C107.564 52.496 107.004 52.6293 106.641 52.896C106.289 53.152 106.113 53.4827 106.113 53.888C106.113 54.208 106.209 54.4587 106.401 54.64C106.604 54.8213 106.865 54.9653 107.185 55.072C107.516 55.168 107.873 55.248 108.257 55.312C108.652 55.376 109.041 55.456 109.425 55.552C109.82 55.6373 110.177 55.76 110.497 55.92C110.828 56.0693 111.089 56.288 111.281 56.576C111.484 56.8533 111.585 57.2213 111.585 57.68C111.585 58.1707 111.447 58.5973 111.169 58.96C110.903 59.312 110.508 59.5893 109.985 59.792C109.473 59.984 108.849 60.08 108.113 60.08ZM117.958 51.52C118.641 51.52 119.238 51.6533 119.75 51.92C120.273 52.176 120.678 52.5707 120.966 53.104C121.265 53.6373 121.414 54.3093 121.414 55.12V60H120.278V55.232C120.278 54.3467 120.054 53.68 119.606 53.232C119.169 52.7733 118.55 52.544 117.75 52.544C117.153 52.544 116.63 52.6667 116.182 52.912C115.745 53.1467 115.403 53.4933 115.158 53.952C114.923 54.4 114.806 54.944 114.806 55.584V60H113.67V48.128H114.806V53.904L114.582 53.472C114.849 52.864 115.275 52.3893 115.862 52.048C116.449 51.696 117.147 51.52 117.958 51.52ZM127.906 60.08C127.096 60.08 126.365 59.8987 125.714 59.536C125.074 59.1627 124.568 58.656 124.194 58.016C123.821 57.3653 123.634 56.624 123.634 55.792C123.634 54.9493 123.821 54.208 124.194 53.568C124.568 52.928 125.074 52.4267 125.714 52.064C126.354 51.7013 127.085 51.52 127.906 51.52C128.738 51.52 129.474 51.7013 130.114 52.064C130.765 52.4267 131.272 52.928 131.634 53.568C132.008 54.208 132.194 54.9493 132.194 55.792C132.194 56.624 132.008 57.3653 131.634 58.016C131.272 58.656 130.765 59.1627 130.114 59.536C129.464 59.8987 128.728 60.08 127.906 60.08ZM127.906 59.072C128.514 59.072 129.053 58.9387 129.522 58.672C129.992 58.3947 130.36 58.0107 130.626 57.52C130.904 57.0187 131.042 56.4427 131.042 55.792C131.042 55.1307 130.904 54.5547 130.626 54.064C130.36 53.5733 129.992 53.1947 129.522 52.928C129.053 52.6507 128.52 52.512 127.922 52.512C127.325 52.512 126.792 52.6507 126.322 52.928C125.853 53.1947 125.48 53.5733 125.202 54.064C124.925 54.5547 124.786 55.1307 124.786 55.792C124.786 56.4427 124.925 57.0187 125.202 57.52C125.48 58.0107 125.853 58.3947 126.322 58.672C126.792 58.9387 127.32 59.072 127.906 59.072ZM145.01 51.52C145.692 51.52 146.284 51.6533 146.786 51.92C147.298 52.176 147.692 52.5707 147.97 53.104C148.258 53.6373 148.402 54.3093 148.402 55.12V60H147.266V55.232C147.266 54.3467 147.052 53.68 146.626 53.232C146.21 52.7733 145.618 52.544 144.85 52.544C144.274 52.544 143.772 52.6667 143.346 52.912C142.93 53.1467 142.604 53.4933 142.37 53.952C142.146 54.4 142.034 54.944 142.034 55.584V60H140.898V55.232C140.898 54.3467 140.684 53.68 140.258 53.232C139.831 52.7733 139.234 52.544 138.466 52.544C137.9 52.544 137.404 52.6667 136.978 52.912C136.551 53.1467 136.22 53.4933 135.986 53.952C135.762 54.4 135.65 54.944 135.65 55.584V60H134.514V51.6H135.602V53.872L135.426 53.472C135.682 52.864 136.092 52.3893 136.658 52.048C137.234 51.696 137.911 51.52 138.69 51.52C139.511 51.52 140.21 51.728 140.786 52.144C141.362 52.5493 141.735 53.1627 141.906 53.984L141.458 53.808C141.703 53.1253 142.135 52.576 142.754 52.16C143.383 51.7333 144.135 51.52 145.01 51.52ZM161.978 51.52C162.661 51.52 163.253 51.6533 163.754 51.92C164.266 52.176 164.661 52.5707 164.938 53.104C165.226 53.6373 165.37 54.3093 165.37 55.12V60H164.234V55.232C164.234 54.3467 164.021 53.68 163.594 53.232C163.178 52.7733 162.586 52.544 161.818 52.544C161.242 52.544 160.741 52.6667 160.314 52.912C159.898 53.1467 159.573 53.4933 159.338 53.952C159.114 54.4 159.002 54.944 159.002 55.584V60H157.866V55.232C157.866 54.3467 157.653 53.68 157.226 53.232C156.8 52.7733 156.202 52.544 155.434 52.544C154.869 52.544 154.373 52.6667 153.946 52.912C153.52 53.1467 153.189 53.4933 152.954 53.952C152.73 54.4 152.618 54.944 152.618 55.584V60H151.482V51.6H152.57V53.872L152.394 53.472C152.65 52.864 153.061 52.3893 153.626 52.048C154.202 51.696 154.88 51.52 155.658 51.52C156.48 51.52 157.178 51.728 157.754 52.144C158.33 52.5493 158.704 53.1627 158.874 53.984L158.426 53.808C158.672 53.1253 159.104 52.576 159.722 52.16C160.352 51.7333 161.104 51.52 161.978 51.52ZM168.451 60V51.6H169.587V60H168.451ZM169.027 49.744C168.793 49.744 168.595 49.664 168.435 49.504C168.275 49.344 168.195 49.152 168.195 48.928C168.195 48.704 168.275 48.5173 168.435 48.368C168.595 48.208 168.793 48.128 169.027 48.128C169.262 48.128 169.459 48.2027 169.619 48.352C169.779 48.5013 169.859 48.688 169.859 48.912C169.859 49.1467 169.779 49.344 169.619 49.504C169.47 49.664 169.273 49.744 169.027 49.744ZM176.316 60.08C175.441 60.08 174.673 59.8987 174.012 59.536C173.351 59.1627 172.833 58.656 172.46 58.016C172.087 57.3653 171.9 56.624 171.9 55.792C171.9 54.96 172.076 54.224 172.428 53.584C172.791 52.944 173.281 52.4427 173.9 52.08C174.529 51.7067 175.233 51.52 176.012 51.52C176.801 51.52 177.5 51.7013 178.108 52.064C178.727 52.416 179.212 52.9173 179.564 53.568C179.916 54.208 180.092 54.9493 180.092 55.792C180.092 55.8453 180.087 55.904 180.076 55.968C180.076 56.0213 180.076 56.08 180.076 56.144H172.764V55.296H179.468L179.02 55.632C179.02 55.024 178.887 54.4853 178.62 54.016C178.364 53.536 178.012 53.1627 177.564 52.896C177.116 52.6293 176.599 52.496 176.012 52.496C175.436 52.496 174.919 52.6293 174.46 52.896C174.001 53.1627 173.644 53.536 173.388 54.016C173.132 54.496 173.004 55.0453 173.004 55.664V55.84C173.004 56.48 173.143 57.0453 173.42 57.536C173.708 58.016 174.103 58.3947 174.604 58.672C175.116 58.9387 175.697 59.072 176.348 59.072C176.86 59.072 177.335 58.9813 177.772 58.8C178.22 58.6187 178.604 58.3413 178.924 57.968L179.564 58.704C179.191 59.152 178.721 59.4933 178.156 59.728C177.601 59.9627 176.988 60.08 176.316 60.08Z" fill="white"/>
</svg>
