<svg width="144" height="48" viewBox="0 0 144 48" fill="none" xmlns="http://www.w3.org/2000/svg">
<path fill-rule="evenodd" clip-rule="evenodd" d="M25.9155 48H26.6816C27.1031 48 27.8349 47.6992 28.3078 47.3318C30.073 45.96 30.1268 45.6122 30.1268 35.536V26.24H49V21.7398L30.2887 21.8032L30.1183 0H25.9155V48ZM12.9577 24.16C12.9577 43.2995 12.9908 44.48 13.5246 44.4787C14.5185 44.4768 16.0692 43.3126 16.628 42.1494C17.1139 41.1376 17.169 39.1357 17.169 22.4317V3.84H12.9577V24.16ZM0 30.6752L1.04504 30.3792C1.61972 30.2163 2.53065 29.648 3.06969 29.1165L4.0493 28.1494L4.255 17.6H0V30.6752Z" fill="white"/>
<path d="M46.476 9.8H52.524C54.492 9.8 55.968 10.328 56.952 11.384C57.936 12.44 58.428 13.988 58.428 16.028V28.772C58.428 30.812 57.936 32.36 56.952 33.416C55.968 34.472 54.492 35 52.524 35H46.476V9.8ZM52.452 31.4C53.1 31.4 53.592 31.208 53.928 30.824C54.288 30.44 54.468 29.816 54.468 28.952V15.848C54.468 14.984 54.288 14.36 53.928 13.976C53.592 13.592 53.1 13.4 52.452 13.4H50.436V31.4H52.452Z" fill="white"/>
<path d="M63.981 9.8H67.941V35H63.981V9.8Z" fill="white"/>
<path d="M73.7868 9.8H84.5868V13.4H77.7468V20.06H83.1828V23.66H77.7468V31.4H84.5868V35H73.7868V9.8Z" fill="white"/>
<path d="M92.8409 13.4H88.7009V9.8H100.941V13.4H96.8009V35H92.8409V13.4Z" fill="white"/>
<path d="M105.738 9.8H109.698V35H105.738V9.8Z" fill="white"/>
<path d="M115.544 9.8H126.02V13.4H119.504V20.42H124.616V24.02H119.504V35H115.544V9.8Z" fill="white"/>
<path d="M134.435 24.272L129.647 9.8H133.859L136.559 19.052H136.631L139.331 9.8H143.183L138.395 24.272V35H134.435V24.272Z" fill="white"/>
</svg>
